<svg width="219" height="97" viewBox="0 0 219 97" fill="none" xmlns="http://www.w3.org/2000/svg">
<path d="M5.72205e-06 18.7317H15.6098V21.8536H18.7317V18.7317H37.4634V21.8536H43.7073V24.9756H46.8293V31.2195H49.9512V65.561H46.8293V71.8049H43.7073V74.9268H37.4634V78.0488H15.6098V96.7805H5.72205e-06V18.7317ZM31.2195 62.439H34.3415V34.3414H31.2195V31.2195H18.7317V34.3414H15.6098V65.561H31.2195V62.439ZM68.5848 -1.52588e-05V12.4878H52.975V-1.52588e-05H68.5848ZM68.5848 21.8536V78.0488H52.975V21.8536H68.5848ZM90.3098 62.439V65.561H102.798V62.439H105.92V56.1951H121.529V65.561H118.407V71.8049H115.285V74.9268H109.041V78.0488H84.0659V74.9268H77.822V71.8049H74.7V65.561H71.5781V31.2195H74.7V24.9756H77.822V21.8536H84.0659V18.7317H109.041V21.8536H115.285V24.9756H118.407V31.2195H121.529V40.5854H105.92V34.3414H102.798V31.2195H90.3098V34.3414H87.1878V62.439H90.3098ZM146.404 37.4634V34.3414H149.526V31.2195H152.648V18.7317H168.257V34.3414H165.135V37.4634H162.013V40.5854H158.891V43.7073H155.77V46.8293H158.891V49.9512H162.013V53.0732H165.135V56.1951H168.257V78.0488H152.648V59.3171H149.526V56.1951H146.404V53.0732H140.16V78.0488H124.55V-1.52588e-05H140.16V37.4634H146.404ZM193.132 31.2195V34.3414H190.01V78.0488H174.4V18.7317H190.01V21.8536H193.132V18.7317H211.863V21.8536H214.985V24.9756H218.107V28.0975H214.985V31.2195H211.863V34.3414H208.741V37.4634H205.62V34.3414H202.498V31.2195H193.132Z" fill="#011936"/>
</svg>
